HIERARCHY
ROOT Hips
{
    OFFSET 0.000000 0.000000 0.000000
    CHANNELS 6 Xposition Yposition Zposition Zrotation Xrotation Yrotation
    JOINT Spine
    {
        OFFSET -0.000000 14.517291 0.000000
        CHANNELS 3 Zrotation Xrotation Yrotation
        JOINT Spine1
        {
            OFFSET -0.000000 37.558300 0.000000
            CHANNELS 3 Zrotation Xrotation Yrotation
            JOINT Neck
            {
                OFFSET -0.000000 37.404057 3.400369
                CHANNELS 3 Zrotation Xrotation Yrotation
                JOINT Head
                {
                    OFFSET -0.000000 24.785618 -3.540803
                    CHANNELS 3 Zrotation Xrotation Yrotation
                    End Site
                    {
                        OFFSET -0.000000 35.408028 0.000000
                    }
                }
            }
            JOINT LeftShoulder
            {
                OFFSET 6.992933 33.973492 -0.192664
                CHANNELS 3 Zrotation Xrotation Yrotation
                JOINT LeftArm
                {
                    OFFSET 21.527611 0.000000 0.000000
                    CHANNELS 3 Zrotation Xrotation Yrotation
                    JOINT LeftForeArm
                    {
                        OFFSET 56.353916 0.000000 0.000000
                        CHANNELS 3 Zrotation Xrotation Yrotation
                        JOINT LeftHand
                        {
                            OFFSET 47.774071 0.000000 0.000000
                            CHANNELS 3 Zrotation Xrotation Yrotation
                            End Site
                            {
                                OFFSET 26.556021 0.000000 0.000000
                            }
                        }
                    }
                }
            }
            JOINT RightShoulder
            {
                OFFSET -7.065357 33.973492 -0.192664
                CHANNELS 3 Zrotation Xrotation Yrotation
                JOINT RightArm
                {
                    OFFSET -21.527611 0.000000 0.000000
                    CHANNELS 3 Zrotation Xrotation Yrotation
                    JOINT RightForeArm
                    {
                        OFFSET -56.353916 0.000000 0.000000
                        CHANNELS 3 Zrotation Xrotation Yrotation
                        JOINT RightHand
                        {
                            OFFSET -47.774071 0.000000 0.000000
                            CHANNELS 3 Zrotation Xrotation Yrotation
                            End Site
                            {
                                OFFSET -26.556021 0.000000 0.000000
                            }
                        }
                    }
                }
            }
        }
    }
    JOINT LeftUpLeg
    {
        OFFSET 17.704014 0.000000 0.000000
        CHANNELS 3 Zrotation Xrotation Yrotation
        JOINT LeftLeg
        {
            OFFSET -0.000000 -81.181816 0.000000
            CHANNELS 3 Zrotation Xrotation Yrotation
            JOINT LeftFoot
            {
                OFFSET -0.000000 -62.821102 0.000000
                CHANNELS 3 Zrotation Xrotation Yrotation
                JOINT LeftToeBase
                {
                    OFFSET -0.000000 -11.507608 26.556021
                    CHANNELS 3 Zrotation Xrotation Yrotation
                    End Site
                    {
                        OFFSET -0.000000 0.000000 7.081605
                    }
                }
            }
        }
    }
    JOINT RightUpLeg
    {
        OFFSET -17.704014 0.000000 0.000000
        CHANNELS 3 Zrotation Xrotation Yrotation
        JOINT RightLeg
        {
            OFFSET -0.000000 -81.181816 0.000000
            CHANNELS 3 Zrotation Xrotation Yrotation
            JOINT RightFoot
            {
                OFFSET -0.000000 -62.821102 0.000000
                CHANNELS 3 Zrotation Xrotation Yrotation
                JOINT RightToeBase
                {
                    OFFSET -0.000000 -11.507608 26.556021
                    CHANNELS 3 Zrotation Xrotation Yrotation
                    End Site
                    {
                        OFFSET -0.000000 0.000000 7.081605
                    }
                }
            }
        }
    }
}
MOTION
Frames:    4
Frame Time:    0.008333
17.430826    155.122955    -108.388451    0.135216    -9.013824    44.884892    -4.530403    1.996654    -4.086127    -1.242271    3.322512    -1.352617    2.388279    6.397649    -17.646524    18.183405    0.508915    -16.165344    8.068196    4.882078    -23.892927    -15.927765    10.885480    -63.705029    -20.800676    -9.369664    -82.239098    -11.677058    -24.852716    -21.823725    -0.528290    5.827399    -4.404599    31.534286    -12.556911    50.220814    -24.898916    -13.576384    65.459808    -12.707088    -1.606821    37.010494    18.926525    -4.572297    -1.403295    -15.640338    39.300690    -16.968431    7.805364    -27.457966    42.962326    0.000000    0.000000    0.000000    -18.363697    -13.824383    -14.593506    13.434898    31.012577    -15.636905    12.643929    4.756270    -20.012430    0.000000    0.000000    0.000000    
17.413008    155.130402    -108.364227    0.130866    -9.020198    44.902084    -4.450711    1.784414    -4.186626    -1.340383    3.611220    -1.376730    2.259854    6.410464    -17.569788    18.314957    0.460868    -16.046972    7.982053    4.822698    -23.695131    -15.885850    10.971850    -63.484322    -20.600527    -9.855107    -81.926994    -11.919675    -24.995415    -21.826479    -0.642743    5.802237    -4.168362    31.666433    -12.625395    50.248497    -24.923159    -13.557250    65.421402    -12.710502    -1.582621    37.000252    18.947466    -4.565204    -1.423581    -15.645894    39.271858    -16.959543    7.791461    -27.450092    42.948761    0.000000    0.000000    0.000000    -18.345469    -13.816156    -14.600704    13.433762    31.014849    -15.650172    12.648726    4.747547    -20.018602    0.000000    0.000000    0.000000    
17.397926    155.138474    -108.340248    0.133297    -9.026652    44.917870    -4.547873    1.940057    -3.997365    -1.215197    3.405990    -1.322253    2.419479    6.298817    -17.666222    18.119291    0.501520    -16.198643    8.046985    4.888784    -23.803865    -16.101536    10.999757    -63.486130    -20.375526    -10.204929    -81.496162    -11.505596    -25.097813    -21.609928    -0.555774    5.788270    -4.537427    31.528265    -12.451426    50.265102    -24.981195    -13.665471    65.372375    -12.658604    -1.651488    36.994991    18.959301    -4.551690    -1.441082    -15.636948    39.247711    -16.974903    7.780872    -27.434101    42.943501    0.000000    0.000000    0.000000    -18.332335    -13.799287    -14.604278    13.429726    31.011013    -15.647826    12.637037    4.747228    -20.010839    0.000000    0.000000    0.000000    
17.379290    155.143509    -108.319092    0.133757    -9.036094    44.932941    -4.559839    1.964033    -3.939676    -1.197909    3.372813    -1.304296    2.483881    6.243085    -17.676863    18.015181    0.504345    -16.231569    8.043687    4.919619    -23.781328    -16.220873    11.032222    -63.390186    -20.124870    -10.547570    -81.096237    -11.058532    -25.182638    -21.474316    -0.537165    5.786547    -4.629757    31.520851    -12.425049    50.280819    -24.978983    -13.675508    65.365013    -12.626059    -1.658929    37.029404    18.976280    -4.542558    -1.449913    -15.634777    39.228439    -16.968805    7.763507    -27.432657    42.933132    0.000000    0.000000    0.000000    -18.314188    -13.789479    -14.603967    13.420728    31.019421    -15.638484    12.654815    4.728783    -20.020231    0.000000    0.000000    0.000000    
